PathFileType	4	(X/Y/Z)	RBDS010\RBDS010runT45.trc
DataRate	CameraRate	NumFrames	NumMarkers	Units	OrigDataRate	OrigDataStartFrame	OrigNumFrames
150.000000	150.000000	5	32	mm	150.000000	2250	4500
Frame#	Time	L.ASIS			L.Heel.Bottom			L.Heel.Lateral			L.Heel.Top			L.Iliac.Crest			L.MT5			L.PSIS			L.Shank.Bottom.Lateral			L.Shank.Bottom.Medial			L.Shank.Top.Lateral			L.Shank.Top.Medial			L.Thigh.Bottom.Lateral			L.Thigh.Bottom.Medial			L.Thigh.Top.Lateral			L.Thigh.Top.Medial			R.ASIS			R.ASY			R.Heel.Bottom			R.Heel.Lateral			R.Heel.Top			R.Iliac.Crest			R.MT1			R.MT5			R.PSIS			R.Shank.Bottom.Lateral			R.Shank.Bottom.Medial			R.Shank.Top.Lateral			R.Shank.Top.Medial			R.Thigh.Bottom.Lateral			R.Thigh.Bottom.Medial			R.Thigh.Top.Lateral			R.Thigh.Top.Medial			
		X1	Y1	Z1	X2	Y2	Z2	X3	Y3	Z3	X4	Y4	Z4	X5	Y5	Z5	X6	Y6	Z6	X7	Y7	Z7	X8	Y8	Z8	X9	Y9	Z9	X10	Y10	Z10	X11	Y11	Z11	X12	Y12	Z12	X13	Y13	Z13	X14	Y14	Z14	X15	Y15	Z15	X16	Y16	Z16	X17	Y17	Z17	X18	Y18	Z18	X19	Y19	Z19	X20	Y20	Z20	X21	Y21	Z21	X22	Y22	Z22	X23	Y23	Z23	X24	Y24	Z24	X25	Y25	Z25	X26	Y26	Z26	X27	Y27	Z27	X28	Y28	Z28	X29	Y29	Z29	X30	Y30	Z30	X31	Y31	Z31	X32	Y32	Z32	

2251	15	2344.792667113113	905.6832798408707	891.7189991745022	2203.732761434066	30.72947143534846	1053.199832561373	2227.632379940429	46.6547043544558	1005.148578559974	2216.91413261352	81.10236781689977	1053.500140249592	2292.731898800447	985.4114713910377	867.5535833080418	2386.863982796804	42.24189072852183	964.1566855185433	2192.120150592622	951.2014818865377	992.5752626932768	2296.48246504905	149.0560937134572	976.7474595633804	2266.508388547753	170.7257577864955	1015.689176791726	2314.888181320839	221.6368573126194	947.8410968101259	2285.6311642334	244.7360386852577	987.2542973416633	2380.723291991484	519.4152773105708	883.9293751653821	2337.685308229627	498.3871608448532	938.6769891070463	2313.786037063739	605.6565978374325	867.0104961261834	2273.212149069057	586.1118538563512	918.4079702487742	2385.970733081242	889.4826195598204	1117.248644425803	1954.865555789452	389.2396882680971	1094.423673107956	1947.831835512179	579.3090636870924	1088.643550925279	1959.809480288885	546.480685876311	1133.418603420944	1991.385782600033	556.4968288574587	1089.057311518811	2334.147392663117	972.5734238957729	1166.620752671473	1900.257495666085	375.4280330783226	1039.820611938091	1903.953263460072	392.5039574866373	1153.269500032122	2212.397199682055	947.7183933242159	1088.248900968244	2070.405143874084	473.5040431675246	1139.170806982969	2078.993775886487	516.1611883666077	1111.816784525108	2154.521034792252	463.8859484654527	1148.331588406	2159.276673134036	508.6881318029529	1119.57101969421	2361.981011456708	510.3109441057936	1172.969391441864	2300.376831655807	495.5382361296038	1136.204083074903	2326.423714918497	612.5618701807613	1187.841929612056	2265.400601396437	598.3291321671403	1158.239361646659	
2252	15.00666666666667	2341.774974780441	900.8354559098397	891.4957853247098	2173.282371561316	31.68557606931379	1053.155333080215	2197.252584116288	47.70717249960034	1005.120281160448	2186.610712986889	81.98282204328017	1053.607739486376	2289.57020134905	979.3431059988485	867.1113063227998	2356.198933272028	42.95475393884694	964.354996077574	2189.431790001027	947.9571522566786	993.380867423181	2270.726805149616	149.5708492485516	976.6971404236593	2241.283858987812	173.0308339052124	1015.080631446816	2293.279913230032	221.0692719743454	947.7529587022356	2264.636757031766	245.9128277728154	986.6063419128737	2371.270505340077	513.9612703879606	884.398380098894	2328.148317753565	493.8712833654063	939.4728694051863	2306.055701976841	601.5039213675201	867.7071010633639	2265.304684001296	582.7646291666128	919.2577572827358	2383.471106894292	885.9541331006346	1117.928724070575	1977.655946127173	384.3147882577355	1095.674921711504	1964.115259588094	573.6321867002949	1093.123240176359	1978.194080016839	540.7064604144653	1137.170690882803	2008.361790376604	552.2141237280703	1092.247073886043	2328.637698746969	967.5622026589247	1167.702685153743	1922.246076313884	369.0437662178501	1042.560811959786	1928.080687172637	384.6053952067195	1155.90526479796	2209.442978314898	944.0755135768405	1088.617346674681	2090.256384326698	469.8477688878177	1141.182015252847	2098.106783396152	513.1683177036994	1114.635743843456	2174.395231418367	461.5101948027329	1150.311667369198	2178.484111927246	506.8437099530241	1122.138947791964	2377.634246525263	511.7854520836322	1174.345876739121	2317.087175751819	493.4990986534617	1137.665232780146	2336.366359200464	611.78658732934	1189.193482089866	2276.111534833064	593.8769588028694	1159.981487948054	
2253	15.01333333333333	2338.984507442446	896.5894108320202	891.3033734550972	2142.969714455652	33.03764883559183	1052.978462219363	2167.02145479526	48.84940612981857	1004.903273235797	2156.474560796566	83.21939499963585	1053.320384939292	2286.411762714801	973.9913376996693	866.6601281966815	2325.665729013771	43.37293566937999	964.3263851282701	2187.140366700527	945.3991052224404	994.1113056244292	2244.625418753685	150.1868605652157	976.1882332518637	2215.763236702917	175.2640604713052	1014.063853662867	2270.910557087344	220.4690241506126	947.3019731335078	2242.937256634978	246.861469224532	985.6313269280512	2360.311490267326	508.6030412675751	884.6596122461686	2316.887310008586	489.5980077445602	939.9063085129501	2297.350146545359	597.786727430552	868.2510748431596	2256.23755345808	580.0217648843477	919.8433201596442	2381.223561496288	882.9327088077407	1118.545645194358	2000.77097786316	378.1282561565565	1097.007007740695	1979.542533759889	566.2659856218811	1097.327334053793	1995.808354820133	533.5933649017669	1140.650939760502	2024.531933222061	546.6017066023401	1095.203061528112	2323.428436086849	963.1207785707685	1168.705298627112	1944.695028899611	360.8908988073449	1045.289523733129	1952.377282599756	375.3807308857107	1158.409689144445	2206.879104193494	941.1573423542031	1088.97057214211	2109.726967041196	465.6880351413502	1143.078950965189	2116.451571038905	509.656372165823	1117.287017009195	2193.923572758403	459.3449972546867	1152.100176010587	2196.920359481554	505.1829793136283	1124.52618539357	2393.134284512687	514.9161488426221	1175.597308736456	2333.90270632244	493.1766193589019	1138.836188798187	2346.16542025458	612.313409944611	1190.411636102603	2287.011051465677	590.7840709070575	1161.371164550277	
2254	15.02	2336.534726183443	893.0202475947359	891.1179388686351	2112.755082054877	34.82936747068715	1052.751932778193	2136.913638603376	50.17233303544874	1004.594907245075	2126.514864618961	84.86513290352796	1052.790691980281	2283.436869043371	969.5600563404194	866.2428143019337	2295.241083088471	43.51471996385568	964.1706883001948	2185.306408810129	943.5538412070066	994.7265484377787	2218.177598098217	150.9373538594124	975.3941967128496	2189.934211118226	177.461628299977	1012.820361286977	2247.777664902263	219.9174497561604	946.6165223212978	2220.520029497502	247.6681986634196	984.4675411123236	2347.977154972112	503.5089734006648	884.6962497237398	2304.008320543964	485.726853338116	939.9202879489627	2287.792181835899	594.6179570423753	868.5963049397826	2246.120212532825	577.9931153479964	920.0939371213104	2379.320348119381	880.479359130348	1119.040287543141	2024.170615247755	370.7592872617315	1098.387561424188	1994.139101954962	557.2099188952901	1101.204136849502	2012.666010248366	525.1540745515857	1143.812695857362	2039.892449525212	539.6482797548174	1097.880987202447	2318.855102464177	959.4108269971186	1169.585650425488	1967.623633174676	351.0983231102953	1047.938859784728	1976.847480816066	364.9703634823151	1160.763128523902	2204.78553922784	939.0335183443879	1089.294745317727	2128.764414835981	461.0435867919188	1144.817754613997	2133.980493783782	505.6144026316915	1119.722514270307	2213.014664435553	457.3800792579147	1153.658162512734	2214.495526262035	503.6675919129211	1126.701088289379	2408.282252466043	519.6060301332064	1176.677480317801	2350.584863609924	494.5392209604343	1139.684849182034	2355.713067625552	614.0823739686351	1191.464258155751	2297.955678516155	589.0707951789559	1162.373338537913	
2255	15.02666666666667	2334.537872262822	890.1759832814683	890.916133166199	2082.588542380753	37.1364935466609	1052.53456069156	2106.892160770816	51.79813165773859	1004.269411892466	2096.724613684285	87.00063055159346	1052.142285148591	2280.864684554364	966.218462409017	865.8928821237271	2264.872940688354	43.43052753871821	963.9727853196993	2183.975850073919	942.419994226996	995.1813151643197	2191.381270692583	151.9108774363698	974.4743920208431	2163.788155966668	179.719738165467	1011.519185020391	2223.893450351487	219.5531292201332	945.8189434484128	2197.391362234591	248.4825512507188	983.2515742361766	2334.438395071898	498.8742255139099	884.5106711559655	2289.683809013205	482.4537062267243	939.5012339837062	2277.535569819315	592.1210440853503	868.7182941135263	2235.114823949181	576.8036437229114	919.9788399474398	2377.843235204712	878.6638399473944	1119.361491553274	2047.832420199519	362.3102654727451	1099.772027857269	2008.002275203886	546.4843821387635	1104.701187519593	2028.844561501346	515.4025886457268	1146.609587840715	2054.506972136312	531.3499245415492	1100.240623220783	2315.209390476272	956.590893988452	1170.311747790862	1991.080182757944	339.8307347156057	1050.435804215077	2001.524851831228	353.5202665087349	1162.939124227019	2203.213109352415	937.7454605373629	1089.563952096822	2147.354452731648	455.9211455321153	1146.355084523046	2150.694577125832	501.0162405527364	1121.899172714598	2231.597899578159	455.5785810527408	1154.958780927958	2231.156653060625	502.2265304246786	1128.637881689024	2422.88581459452	525.7136776606842	1177.54173119127	2366.893361388195	497.5105838264961	1140.181561564074	2364.912400241656	617.008194908151	1192.321961676285	2308.798505806318	588.73106498425	1162.96126280952	
